<svg xmlns="http://www.w3.org/2000/svg" viewBox="0 0 128 128">
  <path fill="#539E43" d="M64 128c-1.8 0-3.5-.5-5-1.4l-15.9-9.4c-2.4-1.3-1.2-1.8-.4-2.1 3.2-1.1 3.8-1.3 7.2-3.2.4-.2.8-.1 1.2.1l12.2 7.3c.4.2 1.1.2 1.5 0l47.7-27.5c.4-.2.7-.7.7-1.2V36.1c0-.5-.3-1-.7-1.2L64.7 7.4c-.4-.2-1.1-.2-1.5 0L15.5 34.9c-.4.2-.7.7-.7 1.2v55c0 .5.3 1 .7 1.2l13.1 7.5c7.1 3.5 11.4-.6 11.4-4.8V41.2c0-.7.6-1.3 1.3-1.3h5.5c.7 0 1.3.6 1.3 1.3v53.8c0 9.4-5.1 14.8-14 14.8-2.7 0-4.9 0-10.9-3l-12.5-7.2c-3.1-1.8-5-5.1-5-8.7V36.1c0-3.6 1.9-6.9 5-8.7L58.9 0c3-1.7 7-1.7 10 0l47.7 27.5c3.1 1.8 5 5.1 5 8.7v55c0 3.6-1.9 6.9-5 8.7L69 127.4c-1.5.9-3.2 1.4-5 1.4z"/>
  <path fill="#539E43" d="M79.3 91.1c-20.8 0-25.2-9.5-25.2-17.5 0-.7.6-1.3 1.3-1.3h5.6c.6 0 1.2.5 1.3 1.1.9 6 3.5 9 15.4 9 9.5 0 13.5-2.1 13.5-7.1 0-2.9-1.1-5-15.9-6.4-12.3-1.2-20-3.9-20-13.7 0-9 7.6-14.4 20.3-14.4 14.3 0 21.4 5 22.3 15.5 0 .4-.1.7-.4 1-.2.3-.6.4-.9.4h-5.6c-.6 0-1.1-.4-1.3-1-.9-4.1-3.2-5.4-14.1-5.4-10.4 0-11.6 3.6-11.6 6.3 0 3.3 1.4 4.2 15.4 6.1 13.9 1.8 20.5 4.4 20.5 13.9 0 9.8-8.1 15.3-22.3 15.3z"/>
</svg>